<svg id="logo" xmlns="http://www.w3.org/2000/svg" viewBox="0 0 2377.87 570.71"><polygon fill="black" points="2377.87 0 2271.77 106.07 2271.77 175 2196.77 175 2196.77 370.71 1996.77 570.71 1996.77 475 621.78 475 621.78 570.71 421.78 370.71 421.78 315.77 403.12 319.06 404.44 321.15 395.98 401.44 227.78 431.1 181.84 358.08 66.82 378.36 0 272.16 8.46 191.87 70.4 180.95 69.08 178.85 77.54 98.56 245.74 68.91 291.68 141.93 406.7 121.65 421.78 145.61 421.78 106.06 315.72 0 746.78 0 771.78 33.32 771.78 0 2377.87 0"></polygon><path fill="white" d="M309.843,252.679,348.7,314.44,258.774,330.3l-38.857-61.76,27.006-36.478ZM1971.774,50v75h75V450l100-100V125h75V85.354L2257.135,50Zm-650,300V50h-100V350Zm350-300V350h100V237.5h50V350h100V50s-100,0-100,0V162.5h-50V50Zm-1050,0V350H721.784V216.676L821.779,350h100V50H821.779V183.308L721.784,50Zm750,300h250V162.5h-112.5v75h37.5V275h-75V125h150V50h-250Zm-400-112.5h125V275h-125v75h200V162.5h-125V125h125V50h-200ZM471.775,350l100,100V50H436.426l35.349,35.35Zm848.832,32h-22.666v68h22.666Zm266.332,17h17v-17h-56.666v17h17v51h22.667Zm-153,51h-22.667v-68h48.652l8.015,8.012V416.49l-8.015,8.014H1433.94Zm0-42.5h11.333V399H1433.94Zm93.984,42.5,8.015-8.015V382.005h-22.666v51h-11.334v-51h-22.666v59.984l8.015,8.015Zm-150.649-37.783L1354.609,382h-22.668v68h22.668V419.784L1377.275,450h22.665V382h-22.665ZM1985.441,424.5l11.333,25.5h-22.666l-11.333-25.5V450h-22.667V382h48.651l8.015,8.013V416.49l-8.015,8.014Zm-22.666-17h11.333V399h-11.333ZM1872.109,382h-22.667l-2.833,34-8.5-14.577-8.5,14.57-2.833-34h-22.667l5.667,68,22.664,0,5.667-9.715,5.666,9.715,22.669,0Zm-187,68,17-68h-22.666l-5.667,22.667L1668.11,382h-22.666l17,68Zm28.333,0h22.667V382h-22.667Zm34,0h45.333V433h-22.667v-8.5h22.667v-17h-22.667V399h22.667V382h-45.333Zm136,0h45.333V433h-22.667v-8.5h22.667v-17h-22.667V399h22.667V382h-45.333ZM939.105,424.5,950.438,450H927.772l-11.334-25.5V450H893.772V382h48.651l8.015,8.013V416.49l-8.015,8.014Zm-22.667-17h11.334V399H916.438Zm328.665,17,11.333,25.5H1233.77l-11.334-25.5V450H1199.77V382h48.651l8.015,8.013V416.49l-8.015,8.014Zm-22.667-17h11.334V399h-11.334ZM1075.1,433h-22.666V382h-22.667v68H1075.1Zm-408,17V433H644.441V399h22.666V382H621.774v68Zm351.331,0H961.771V382h56.667Zm-22.667-51H984.438v34h11.333Zm136,34H1109.1V382h-22.667v68h45.333ZM865.439,399h17V382H825.773v17h17v51h22.667ZM735.107,450H678.44V382h56.667Zm-34-17H712.44V399H701.107Zm90.667-20.783L769.108,382H746.44v68h22.668V419.784L791.774,450h22.665V382H791.774ZM1188.437,382H1143.1v68h45.333V433H1165.77v-8.5h22.667v-17H1165.77V399h22.667ZM232.748,209.527l27-36.476L220.892,111.3l-89.926,15.856,38.854,61.756Zm149.115-45.49-97.28,17.153-27.005,36.477L320.5,238.282l97.28-17.154ZM195.088,260.4l27-36.471L159.169,203.3l-97.28,17.153,35.919,57.092Z"></path></svg>